999
"DXF R12 Output" (www.mydxf.blogspot.com)
 0 
SECTION
 2 
HEADER
 9 
$ACADVER
 1 
AC1009
 9 
$EXTMIN
 10 
 0 
 20 
 0 
 9 
$EXTMAX
 10 
 8.5 
 20 
 11 
 0 
ENDSEC
 0 
SECTION
 2 
ENTITIES
0
LINE
8
Layer 1
10
0.846666
20
317.647000
11
-0.846666
21
315.953000
0
LINE
8
Layer 1
10
0.000000
20
318.211000
11
0.000000
21
315.389000
0
LINE
8
Layer 1
10
2.257780
20
315.671000
11
1.128890
21
314.542110
0
LINE
8
Layer 1
10
1.693330
20
316.236000
11
0.564440
21
315.107110
0
LINE
8
Layer 1
10
1.128890
20
316.800000
11
0.000000
21
315.671110
0
LINE
8
0
10
-293.441000
20
106.245000
11
-293.642914
21
107.009854
0
LINE
8
0
10
-293.642914
20
107.009854
11
-294.201034
21
107.570456
0
LINE
8
0
10
-294.201034
20
107.570456
11
-294.964985
21
107.775762
0
LINE
8
0
10
-294.964985
20
107.775762
11
-295.728936
21
107.570456
0
LINE
8
0
10
-295.728936
20
107.570456
11
-296.287056
21
107.009854
0
LINE
8
0
10
-296.287056
20
107.009854
11
-296.488970
21
106.245000
0
LINE
8
0
10
-296.488970
20
106.245000
11
-296.287056
21
105.480146
0
LINE
8
0
10
-296.287056
20
105.480146
11
-295.728936
21
104.919544
0
LINE
8
0
10
-295.728936
20
104.919544
11
-294.964985
21
104.714238
0
LINE
8
0
10
-294.964985
20
104.714238
11
-294.201034
21
104.919544
0
LINE
8
0
10
-294.201034
20
104.919544
11
-293.642914
21
105.480146
0
LINE
8
0
10
-293.642914
20
105.480146
11
-293.441000
21
106.245000
0
LINE
8
0
10
-293.441000
20
106.245000
11
-293.441000
21
106.245000
0
LINE
8
0
10
-241.964000
20
106.245000
11
-242.168177
21
107.007000
0
LINE
8
0
10
-242.168177
20
107.007000
11
-242.726000
21
107.564823
0
LINE
8
0
10
-242.726000
20
107.564823
11
-243.488000
21
107.769000
0
LINE
8
0
10
-243.488000
20
107.769000
11
-244.250000
21
107.564823
0
LINE
8
0
10
-244.250000
20
107.564823
11
-244.807823
21
107.007000
0
LINE
8
0
10
-244.807823
20
107.007000
11
-245.012000
21
106.245000
0
LINE
8
0
10
-245.012000
20
106.245000
11
-244.807823
21
105.483000
0
LINE
8
0
10
-244.807823
20
105.483000
11
-244.250000
21
104.925177
0
LINE
8
0
10
-244.250000
20
104.925177
11
-243.488000
21
104.721000
0
LINE
8
0
10
-243.488000
20
104.721000
11
-242.726000
21
104.925177
0
LINE
8
0
10
-242.726000
20
104.925177
11
-242.168177
21
105.483000
0
LINE
8
0
10
-242.168177
20
105.483000
11
-241.964000
21
106.245000
0
LINE
8
0
10
-241.964000
20
106.245000
11
-241.964000
21
106.245000
0
LINE
8
0
10
-245.350000
20
176.688000
11
-245.554177
21
177.450000
0
LINE
8
0
10
-245.554177
20
177.450000
11
-246.112000
21
178.007823
0
LINE
8
0
10
-246.112000
20
178.007823
11
-246.874000
21
178.212000
0
LINE
8
0
10
-246.874000
20
178.212000
11
-247.636000
21
178.007823
0
LINE
8
0
10
-247.636000
20
178.007823
11
-248.193823
21
177.450000
0
LINE
8
0
10
-248.193823
20
177.450000
11
-248.398000
21
176.688000
0
LINE
8
0
10
-248.398000
20
176.688000
11
-248.193823
21
175.926000
0
LINE
8
0
10
-248.193823
20
175.926000
11
-247.636000
21
175.368177
0
LINE
8
0
10
-247.636000
20
175.368177
11
-246.874000
21
175.164000
0
LINE
8
0
10
-246.874000
20
175.164000
11
-246.112000
21
175.368177
0
LINE
8
0
10
-246.112000
20
175.368177
11
-245.554177
21
175.926000
0
LINE
8
0
10
-245.554177
20
175.926000
11
-245.350000
21
176.688000
0
LINE
8
0
10
-245.350000
20
176.688000
11
-245.350000
21
176.688000
0
LINE
8
0
10
-290.054000
20
176.688000
11
-290.255914
21
177.452854
0
LINE
8
0
10
-290.255914
20
177.452854
11
-290.814034
21
178.013456
0
LINE
8
0
10
-290.814034
20
178.013456
11
-291.577985
21
178.218762
0
LINE
8
0
10
-291.577985
20
178.218762
11
-292.341936
21
178.013456
0
LINE
8
0
10
-292.341936
20
178.013456
11
-292.900056
21
177.452854
0
LINE
8
0
10
-292.900056
20
177.452854
11
-293.101970
21
176.688000
0
LINE
8
0
10
-293.101970
20
176.688000
11
-292.900056
21
175.923146
0
LINE
8
0
10
-292.900056
20
175.923146
11
-292.341936
21
175.362544
0
LINE
8
0
10
-292.341936
20
175.362544
11
-291.577985
21
175.157238
0
LINE
8
0
10
-291.577985
20
175.157238
11
-290.814034
21
175.362544
0
LINE
8
0
10
-290.814034
20
175.362544
11
-290.255914
21
175.923146
0
LINE
8
0
10
-290.255914
20
175.923146
11
-290.054000
21
176.688000
0
LINE
8
0
10
-290.054000
20
176.688000
11
-290.054000
21
176.688000
0
LINE
8
0
10
-309.093000
20
170.667000
11
-309.382385
21
171.747000
0
LINE
8
0
10
-309.382385
20
171.747000
11
-310.173000
21
172.537615
0
LINE
8
0
10
-310.173000
20
172.537615
11
-311.253000
21
172.827000
0
LINE
8
0
10
-311.253000
20
172.827000
11
-312.333000
21
172.537615
0
LINE
8
0
10
-312.333000
20
172.537615
11
-313.123615
21
171.747000
0
LINE
8
0
10
-313.123615
20
171.747000
11
-313.413000
21
170.667000
0
LINE
8
0
10
-313.413000
20
170.667000
11
-313.123615
21
169.587000
0
LINE
8
0
10
-313.123615
20
169.587000
11
-312.333000
21
168.796385
0
LINE
8
0
10
-312.333000
20
168.796385
11
-311.253000
21
168.507000
0
LINE
8
0
10
-311.253000
20
168.507000
11
-310.173000
21
168.796385
0
LINE
8
0
10
-310.173000
20
168.796385
11
-309.382385
21
169.587000
0
LINE
8
0
10
-309.382385
20
169.587000
11
-309.093000
21
170.667000
0
LINE
8
0
10
-309.093000
20
170.667000
11
-309.093000
21
170.667000
0
LINE
8
0
10
-225.040000
20
142.400000
11
-225.113762
21
142.964508
0
LINE
8
0
10
-225.113762
20
142.964508
11
-225.327833
21
143.481963
0
LINE
8
0
10
-225.327833
20
143.481963
11
-225.667651
21
143.927058
0
LINE
8
0
10
-225.667651
20
143.927058
11
-226.118654
21
144.274487
0
LINE
8
0
10
-226.118654
20
144.274487
11
-226.644726
21
144.492108
0
LINE
8
0
10
-226.644726
20
144.492108
11
-227.199995
21
144.564648
0
LINE
8
0
10
-227.199995
20
144.564648
11
-227.755264
21
144.492108
0
LINE
8
0
10
-227.755264
20
144.492108
11
-228.281336
21
144.274487
0
LINE
8
0
10
-228.281336
20
144.274487
11
-228.732339
21
143.927058
0
LINE
8
0
10
-228.732339
20
143.927058
11
-229.072157
21
143.481963
0
LINE
8
0
10
-229.072157
20
143.481963
11
-229.286228
21
142.964508
0
LINE
8
0
10
-229.286228
20
142.964508
11
-229.359990
21
142.400000
0
LINE
8
0
10
-229.359990
20
142.400000
11
-229.286228
21
141.835492
0
LINE
8
0
10
-229.286228
20
141.835492
11
-229.072157
21
141.318037
0
LINE
8
0
10
-229.072157
20
141.318037
11
-228.732339
21
140.872942
0
LINE
8
0
10
-228.732339
20
140.872942
11
-228.281336
21
140.525513
0
LINE
8
0
10
-228.281336
20
140.525513
11
-227.755264
21
140.307892
0
LINE
8
0
10
-227.755264
20
140.307892
11
-227.199995
21
140.235352
0
LINE
8
0
10
-227.199995
20
140.235352
11
-226.644726
21
140.307892
0
LINE
8
0
10
-226.644726
20
140.307892
11
-226.118654
21
140.525513
0
LINE
8
0
10
-226.118654
20
140.525513
11
-225.667651
21
140.872942
0
LINE
8
0
10
-225.667651
20
140.872942
11
-225.327833
21
141.318037
0
LINE
8
0
10
-225.327833
20
141.318037
11
-225.113762
21
141.835492
0
LINE
8
0
10
-225.113762
20
141.835492
11
-225.040000
21
142.400000
0
LINE
8
0
10
-225.040000
20
142.400000
11
-225.040000
21
142.400000
0
LINE
8
0
10
-317.626000
20
156.533000
11
-317.915385
21
157.613000
0
LINE
8
0
10
-317.915385
20
157.613000
11
-318.706000
21
158.403615
0
LINE
8
0
10
-318.706000
20
158.403615
11
-319.786000
21
158.693000
0
LINE
8
0
10
-319.786000
20
158.693000
11
-320.866000
21
158.403615
0
LINE
8
0
10
-320.866000
20
158.403615
11
-321.656615
21
157.613000
0
LINE
8
0
10
-321.656615
20
157.613000
11
-321.946000
21
156.533000
0
LINE
8
0
10
-321.946000
20
156.533000
11
-321.656615
21
155.453000
0
LINE
8
0
10
-321.656615
20
155.453000
11
-320.866000
21
154.662385
0
LINE
8
0
10
-320.866000
20
154.662385
11
-319.786000
21
154.373000
0
LINE
8
0
10
-319.786000
20
154.373000
11
-318.706000
21
154.662385
0
LINE
8
0
10
-318.706000
20
154.662385
11
-317.915385
21
155.453000
0
LINE
8
0
10
-317.915385
20
155.453000
11
-317.626000
21
156.533000
0
LINE
8
0
10
-317.626000
20
156.533000
11
-317.626000
21
156.533000
0
LINE
8
0
10
-225.040000
20
170.667000
11
-225.113762
21
171.231508
0
LINE
8
0
10
-225.113762
20
171.231508
11
-225.327833
21
171.748963
0
LINE
8
0
10
-225.327833
20
171.748963
11
-225.667651
21
172.194058
0
LINE
8
0
10
-225.667651
20
172.194058
11
-226.118654
21
172.541487
0
LINE
8
0
10
-226.118654
20
172.541487
11
-226.644726
21
172.759108
0
LINE
8
0
10
-226.644726
20
172.759108
11
-227.199995
21
172.831648
0
LINE
8
0
10
-227.199995
20
172.831648
11
-227.755264
21
172.759108
0
LINE
8
0
10
-227.755264
20
172.759108
11
-228.281336
21
172.541487
0
LINE
8
0
10
-228.281336
20
172.541487
11
-228.732339
21
172.194058
0
LINE
8
0
10
-228.732339
20
172.194058
11
-229.072157
21
171.748963
0
LINE
8
0
10
-229.072157
20
171.748963
11
-229.286228
21
171.231508
0
LINE
8
0
10
-229.286228
20
171.231508
11
-229.359990
21
170.667000
0
LINE
8
0
10
-229.359990
20
170.667000
11
-229.286228
21
170.102492
0
LINE
8
0
10
-229.286228
20
170.102492
11
-229.072157
21
169.585037
0
LINE
8
0
10
-229.072157
20
169.585037
11
-228.732339
21
169.139942
0
LINE
8
0
10
-228.732339
20
169.139942
11
-228.281336
21
168.792513
0
LINE
8
0
10
-228.281336
20
168.792513
11
-227.755264
21
168.574892
0
LINE
8
0
10
-227.755264
20
168.574892
11
-227.199995
21
168.502352
0
LINE
8
0
10
-227.199995
20
168.502352
11
-226.644726
21
168.574892
0
LINE
8
0
10
-226.644726
20
168.574892
11
-226.118654
21
168.792513
0
LINE
8
0
10
-226.118654
20
168.792513
11
-225.667651
21
169.139942
0
LINE
8
0
10
-225.667651
20
169.139942
11
-225.327833
21
169.585037
0
LINE
8
0
10
-225.327833
20
169.585037
11
-225.113762
21
170.102492
0
LINE
8
0
10
-225.113762
20
170.102492
11
-225.040000
21
170.667000
0
LINE
8
0
10
-225.040000
20
170.667000
11
-225.040000
21
170.667000
0
LINE
8
0
10
-216.506000
20
156.533000
11
-216.579762
21
157.097508
0
LINE
8
0
10
-216.579762
20
157.097508
11
-216.793833
21
157.614963
0
LINE
8
0
10
-216.793833
20
157.614963
11
-217.133651
21
158.060058
0
LINE
8
0
10
-217.133651
20
158.060058
11
-217.584654
21
158.407487
0
LINE
8
0
10
-217.584654
20
158.407487
11
-218.110726
21
158.625108
0
LINE
8
0
10
-218.110726
20
158.625108
11
-218.665995
21
158.697648
0
LINE
8
0
10
-218.665995
20
158.697648
11
-219.221264
21
158.625108
0
LINE
8
0
10
-219.221264
20
158.625108
11
-219.747336
21
158.407487
0
LINE
8
0
10
-219.747336
20
158.407487
11
-220.198339
21
158.060058
0
LINE
8
0
10
-220.198339
20
158.060058
11
-220.538157
21
157.614963
0
LINE
8
0
10
-220.538157
20
157.614963
11
-220.752228
21
157.097508
0
LINE
8
0
10
-220.752228
20
157.097508
11
-220.825990
21
156.533000
0
LINE
8
0
10
-220.825990
20
156.533000
11
-220.752228
21
155.968492
0
LINE
8
0
10
-220.752228
20
155.968492
11
-220.538157
21
155.451037
0
LINE
8
0
10
-220.538157
20
155.451037
11
-220.198339
21
155.005942
0
LINE
8
0
10
-220.198339
20
155.005942
11
-219.747336
21
154.658513
0
LINE
8
0
10
-219.747336
20
154.658513
11
-219.221264
21
154.440892
0
LINE
8
0
10
-219.221264
20
154.440892
11
-218.665995
21
154.368352
0
LINE
8
0
10
-218.665995
20
154.368352
11
-218.110726
21
154.440892
0
LINE
8
0
10
-218.110726
20
154.440892
11
-217.584654
21
154.658513
0
LINE
8
0
10
-217.584654
20
154.658513
11
-217.133651
21
155.005942
0
LINE
8
0
10
-217.133651
20
155.005942
11
-216.793833
21
155.451037
0
LINE
8
0
10
-216.793833
20
155.451037
11
-216.579762
21
155.968492
0
LINE
8
0
10
-216.579762
20
155.968492
11
-216.506000
21
156.533000
0
LINE
8
0
10
-216.506000
20
156.533000
11
-216.506000
21
156.533000
0
LINE
8
0
10
-309.093000
20
142.400000
11
-309.382385
21
143.480000
0
LINE
8
0
10
-309.382385
20
143.480000
11
-310.173000
21
144.270615
0
LINE
8
0
10
-310.173000
20
144.270615
11
-311.253000
21
144.560000
0
LINE
8
0
10
-311.253000
20
144.560000
11
-312.333000
21
144.270615
0
LINE
8
0
10
-312.333000
20
144.270615
11
-313.123615
21
143.480000
0
LINE
8
0
10
-313.123615
20
143.480000
11
-313.413000
21
142.400000
0
LINE
8
0
10
-313.413000
20
142.400000
11
-313.123615
21
141.320000
0
LINE
8
0
10
-313.123615
20
141.320000
11
-312.333000
21
140.529385
0
LINE
8
0
10
-312.333000
20
140.529385
11
-311.253000
21
140.240000
0
LINE
8
0
10
-311.253000
20
140.240000
11
-310.173000
21
140.529385
0
LINE
8
0
10
-310.173000
20
140.529385
11
-309.382385
21
141.320000
0
LINE
8
0
10
-309.382385
20
141.320000
11
-309.093000
21
142.400000
0
LINE
8
0
10
-309.093000
20
142.400000
11
-309.093000
21
142.400000
0
LINE
8
0
10
-213.333000
20
131.733000
11
-238.291000
21
90.666800
0
LINE
8
0
10
-325.120000
20
131.733000
11
-300.163000
21
90.666800
0
LINE
8
0
10
-325.120000
20
131.733000
11
-325.120000
21
181.333000
0
LINE
8
0
10
-325.120000
20
181.333000
11
-213.333000
21
181.333000
0
LINE
8
0
10
-213.333000
20
131.733000
11
-213.333000
21
181.333000
0
LINE
8
0
10
-290.026000
20
45.866900
11
-290.026000
21
19.200200
0
LINE
8
0
10
-290.026000
20
19.200200
11
-293.226000
21
19.200200
0
LINE
8
0
10
-293.226000
20
19.200200
11
-293.226000
21
45.866900
0
LINE
8
0
10
-293.226000
20
45.866900
11
-290.026000
21
45.866900
0
LINE
8
0
10
-290.026000
20
45.866900
11
-290.026000
21
45.866900
0
LINE
8
0
10
-245.226000
20
45.866900
11
-245.226000
21
19.200200
0
LINE
8
0
10
-245.226000
20
19.200200
11
-248.426000
21
19.200200
0
LINE
8
0
10
-248.426000
20
19.200200
11
-248.426000
21
45.866900
0
LINE
8
0
10
-248.426000
20
45.866900
11
-245.226000
21
45.866900
0
LINE
8
0
10
-245.226000
20
45.866900
11
-245.226000
21
45.866900
0
LINE
8
0
10
-309.093000
20
10.666900
11
-309.382385
21
11.746900
0
LINE
8
0
10
-309.382385
20
11.746900
11
-310.173000
21
12.537515
0
LINE
8
0
10
-310.173000
20
12.537515
11
-311.253000
21
12.826900
0
LINE
8
0
10
-311.253000
20
12.826900
11
-312.333000
21
12.537515
0
LINE
8
0
10
-312.333000
20
12.537515
11
-313.123615
21
11.746900
0
LINE
8
0
10
-313.123615
20
11.746900
11
-313.413000
21
10.666900
0
LINE
8
0
10
-313.413000
20
10.666900
11
-313.123615
21
9.586900
0
LINE
8
0
10
-313.123615
20
9.586900
11
-312.333000
21
8.796285
0
LINE
8
0
10
-312.333000
20
8.796285
11
-311.253000
21
8.506900
0
LINE
8
0
10
-311.253000
20
8.506900
11
-310.173000
21
8.796285
0
LINE
8
0
10
-310.173000
20
8.796285
11
-309.382385
21
9.586900
0
LINE
8
0
10
-309.382385
20
9.586900
11
-309.093000
21
10.666900
0
LINE
8
0
10
-309.093000
20
10.666900
11
-309.093000
21
10.666900
0
LINE
8
0
10
-225.040000
20
38.933600
11
-225.113762
21
39.498108
0
LINE
8
0
10
-225.113762
20
39.498108
11
-225.327833
21
40.015563
0
LINE
8
0
10
-225.327833
20
40.015563
11
-225.667651
21
40.460658
0
LINE
8
0
10
-225.667651
20
40.460658
11
-226.118654
21
40.808087
0
LINE
8
0
10
-226.118654
20
40.808087
11
-226.644726
21
41.025708
0
LINE
8
0
10
-226.644726
20
41.025708
11
-227.199995
21
41.098248
0
LINE
8
0
10
-227.199995
20
41.098248
11
-227.755264
21
41.025708
0
LINE
8
0
10
-227.755264
20
41.025708
11
-228.281336
21
40.808087
0
LINE
8
0
10
-228.281336
20
40.808087
11
-228.732339
21
40.460658
0
LINE
8
0
10
-228.732339
20
40.460658
11
-229.072157
21
40.015563
0
LINE
8
0
10
-229.072157
20
40.015563
11
-229.286228
21
39.498108
0
LINE
8
0
10
-229.286228
20
39.498108
11
-229.359990
21
38.933600
0
LINE
8
0
10
-229.359990
20
38.933600
11
-229.286228
21
38.369092
0
LINE
8
0
10
-229.286228
20
38.369092
11
-229.072157
21
37.851637
0
LINE
8
0
10
-229.072157
20
37.851637
11
-228.732339
21
37.406542
0
LINE
8
0
10
-228.732339
20
37.406542
11
-228.281336
21
37.059113
0
LINE
8
0
10
-228.281336
20
37.059113
11
-227.755264
21
36.841492
0
LINE
8
0
10
-227.755264
20
36.841492
11
-227.199995
21
36.768952
0
LINE
8
0
10
-227.199995
20
36.768952
11
-226.644726
21
36.841492
0
LINE
8
0
10
-226.644726
20
36.841492
11
-226.118654
21
37.059113
0
LINE
8
0
10
-226.118654
20
37.059113
11
-225.667651
21
37.406542
0
LINE
8
0
10
-225.667651
20
37.406542
11
-225.327833
21
37.851637
0
LINE
8
0
10
-225.327833
20
37.851637
11
-225.113762
21
38.369092
0
LINE
8
0
10
-225.113762
20
38.369092
11
-225.040000
21
38.933600
0
LINE
8
0
10
-225.040000
20
38.933600
11
-225.040000
21
38.933600
0
LINE
8
0
10
-317.626000
20
24.800200
11
-317.915385
21
25.880200
0
LINE
8
0
10
-317.915385
20
25.880200
11
-318.706000
21
26.670815
0
LINE
8
0
10
-318.706000
20
26.670815
11
-319.786000
21
26.960200
0
LINE
8
0
10
-319.786000
20
26.960200
11
-320.866000
21
26.670815
0
LINE
8
0
10
-320.866000
20
26.670815
11
-321.656615
21
25.880200
0
LINE
8
0
10
-321.656615
20
25.880200
11
-321.946000
21
24.800200
0
LINE
8
0
10
-321.946000
20
24.800200
11
-321.656615
21
23.720200
0
LINE
8
0
10
-321.656615
20
23.720200
11
-320.866000
21
22.929585
0
LINE
8
0
10
-320.866000
20
22.929585
11
-319.786000
21
22.640200
0
LINE
8
0
10
-319.786000
20
22.640200
11
-318.706000
21
22.929585
0
LINE
8
0
10
-318.706000
20
22.929585
11
-317.915385
21
23.720200
0
LINE
8
0
10
-317.915385
20
23.720200
11
-317.626000
21
24.800200
0
LINE
8
0
10
-317.626000
20
24.800200
11
-317.626000
21
24.800200
0
LINE
8
0
10
-225.040000
20
10.666900
11
-225.113762
21
11.231408
0
LINE
8
0
10
-225.113762
20
11.231408
11
-225.327833
21
11.748863
0
LINE
8
0
10
-225.327833
20
11.748863
11
-225.667651
21
12.193958
0
LINE
8
0
10
-225.667651
20
12.193958
11
-226.118654
21
12.541387
0
LINE
8
0
10
-226.118654
20
12.541387
11
-226.644726
21
12.759008
0
LINE
8
0
10
-226.644726
20
12.759008
11
-227.199995
21
12.831548
0
LINE
8
0
10
-227.199995
20
12.831548
11
-227.755264
21
12.759008
0
LINE
8
0
10
-227.755264
20
12.759008
11
-228.281336
21
12.541387
0
LINE
8
0
10
-228.281336
20
12.541387
11
-228.732339
21
12.193958
0
LINE
8
0
10
-228.732339
20
12.193958
11
-229.072157
21
11.748863
0
LINE
8
0
10
-229.072157
20
11.748863
11
-229.286228
21
11.231408
0
LINE
8
0
10
-229.286228
20
11.231408
11
-229.359990
21
10.666900
0
LINE
8
0
10
-229.359990
20
10.666900
11
-229.286228
21
10.102392
0
LINE
8
0
10
-229.286228
20
10.102392
11
-229.072157
21
9.584937
0
LINE
8
0
10
-229.072157
20
9.584937
11
-228.732339
21
9.139842
0
LINE
8
0
10
-228.732339
20
9.139842
11
-228.281336
21
8.792413
0
LINE
8
0
10
-228.281336
20
8.792413
11
-227.755264
21
8.574792
0
LINE
8
0
10
-227.755264
20
8.574792
11
-227.199995
21
8.502252
0
LINE
8
0
10
-227.199995
20
8.502252
11
-226.644726
21
8.574792
0
LINE
8
0
10
-226.644726
20
8.574792
11
-226.118654
21
8.792413
0
LINE
8
0
10
-226.118654
20
8.792413
11
-225.667651
21
9.139842
0
LINE
8
0
10
-225.667651
20
9.139842
11
-225.327833
21
9.584937
0
LINE
8
0
10
-225.327833
20
9.584937
11
-225.113762
21
10.102392
0
LINE
8
0
10
-225.113762
20
10.102392
11
-225.040000
21
10.666900
0
LINE
8
0
10
-225.040000
20
10.666900
11
-225.040000
21
10.666900
0
LINE
8
0
10
-216.506000
20
24.800200
11
-216.579762
21
25.364708
0
LINE
8
0
10
-216.579762
20
25.364708
11
-216.793833
21
25.882163
0
LINE
8
0
10
-216.793833
20
25.882163
11
-217.133651
21
26.327258
0
LINE
8
0
10
-217.133651
20
26.327258
11
-217.584654
21
26.674687
0
LINE
8
0
10
-217.584654
20
26.674687
11
-218.110726
21
26.892308
0
LINE
8
0
10
-218.110726
20
26.892308
11
-218.665995
21
26.964848
0
LINE
8
0
10
-218.665995
20
26.964848
11
-219.221264
21
26.892308
0
LINE
8
0
10
-219.221264
20
26.892308
11
-219.747336
21
26.674687
0
LINE
8
0
10
-219.747336
20
26.674687
11
-220.198339
21
26.327258
0
LINE
8
0
10
-220.198339
20
26.327258
11
-220.538157
21
25.882163
0
LINE
8
0
10
-220.538157
20
25.882163
11
-220.752228
21
25.364708
0
LINE
8
0
10
-220.752228
20
25.364708
11
-220.825990
21
24.800200
0
LINE
8
0
10
-220.825990
20
24.800200
11
-220.752228
21
24.235692
0
LINE
8
0
10
-220.752228
20
24.235692
11
-220.538157
21
23.718237
0
LINE
8
0
10
-220.538157
20
23.718237
11
-220.198339
21
23.273142
0
LINE
8
0
10
-220.198339
20
23.273142
11
-219.747336
21
22.925713
0
LINE
8
0
10
-219.747336
20
22.925713
11
-219.221264
21
22.708092
0
LINE
8
0
10
-219.221264
20
22.708092
11
-218.665995
21
22.635552
0
LINE
8
0
10
-218.665995
20
22.635552
11
-218.110726
21
22.708092
0
LINE
8
0
10
-218.110726
20
22.708092
11
-217.584654
21
22.925713
0
LINE
8
0
10
-217.584654
20
22.925713
11
-217.133651
21
23.273142
0
LINE
8
0
10
-217.133651
20
23.273142
11
-216.793833
21
23.718237
0
LINE
8
0
10
-216.793833
20
23.718237
11
-216.579762
21
24.235692
0
LINE
8
0
10
-216.579762
20
24.235692
11
-216.506000
21
24.800200
0
LINE
8
0
10
-216.506000
20
24.800200
11
-216.506000
21
24.800200
0
LINE
8
0
10
-309.093000
20
38.933600
11
-309.382385
21
40.013600
0
LINE
8
0
10
-309.382385
20
40.013600
11
-310.173000
21
40.804215
0
LINE
8
0
10
-310.173000
20
40.804215
11
-311.253000
21
41.093600
0
LINE
8
0
10
-311.253000
20
41.093600
11
-312.333000
21
40.804215
0
LINE
8
0
10
-312.333000
20
40.804215
11
-313.123615
21
40.013600
0
LINE
8
0
10
-313.123615
20
40.013600
11
-313.413000
21
38.933600
0
LINE
8
0
10
-313.413000
20
38.933600
11
-313.123615
21
37.853600
0
LINE
8
0
10
-313.123615
20
37.853600
11
-312.333000
21
37.062985
0
LINE
8
0
10
-312.333000
20
37.062985
11
-311.253000
21
36.773600
0
LINE
8
0
10
-311.253000
20
36.773600
11
-310.173000
21
37.062985
0
LINE
8
0
10
-310.173000
20
37.062985
11
-309.382385
21
37.853600
0
LINE
8
0
10
-309.382385
20
37.853600
11
-309.093000
21
38.933600
0
LINE
8
0
10
-309.093000
20
38.933600
11
-309.093000
21
38.933600
0
LINE
8
0
10
-213.333000
20
49.600200
11
-238.291000
21
90.666800
0
LINE
8
0
10
-238.291000
20
90.666800
11
-300.162000
21
90.666800
0
LINE
8
0
10
-300.162000
20
90.666800
11
-325.120000
21
49.600200
0
LINE
8
0
10
-325.120000
20
49.600200
11
-325.120000
21
0.000249
0
LINE
8
0
10
-325.120000
20
0.000249
11
-213.333000
21
0.000249
0
LINE
8
0
10
-213.333000
20
0.000249
11
-213.333000
21
49.600200
0
LINE
8
0
10
-213.333000
20
49.600200
11
-213.333000
21
49.600200
0
LINE
8
0
10
-325.120000
20
131.733000
11
-325.120000
21
49.600100
0
LINE
8
0
10
-213.333000
20
131.733000
11
-213.333000
21
49.600100
 0 
ENDSEC
 0 
EOF