0
SECTION
2
HEADER
9
$INSUNITS
70
4
9
$ACADVER
1
AC1014
9
$HANDSEED
5
FFFF
0
ENDSEC
0
SECTION
2
TABLES
0
TABLE
2
VPORT
5
8
100
AcDbSymbolTable
0
ENDTAB
0
TABLE
2
LTYPE
5
5
100
AcDbSymbolTable
0
LTYPE
5
14
100
AcDbSymbolTableRecord
100
AcDbLinetypeTableRecord
2
BYBLOCK
70
0
0
LTYPE
5
15
100
AcDbSymbolTableRecord
100
AcDbLinetypeTableRecord
2
BYLAYER
70
0
0
ENDTAB
0
TABLE
2
LAYER
5
2
100
AcDbSymbolTable
70
2
0
LAYER
5
50
100
AcDbSymbolTableRecord
100
AcDbLayerTableRecord
2
0
70
0
6
CONTINUOUS
0
ENDTAB
0
TABLE
2
STYLE
5
3
100
AcDbSymbolTable
70
1
0
STYLE
5
11
100
AcDbSymbolTableRecord
100
AcDbTextStyleTableRecord
2
STANDARD
70
0
0
ENDTAB
0
TABLE
2
VIEW
5
6
100
AcDbSymbolTable
70
0
0
ENDTAB
0
TABLE
2
UCS
5
7
100
AcDbSymbolTable
70
0
0
ENDTAB
0
TABLE
2
APPID
5
9
100
AcDbSymbolTable
70
2
0
APPID
5
12
100
AcDbSymbolTableRecord
100
AcDbRegAppTableRecord
2
ACAD
70
0
0
ENDTAB
0
TABLE
2
DIMSTYLE
5
A
100
AcDbSymbolTable
70
1
0
ENDTAB
0
TABLE
2
BLOCK_RECORD
5
1
100
AcDbSymbolTable
70
1
0
BLOCK_RECORD
5
1F
100
AcDbSymbolTableRecord
100
AcDbBlockTableRecord
2
*MODEL_SPACE
0
BLOCK_RECORD
5
1B
100
AcDbSymbolTableRecord
100
AcDbBlockTableRecord
2
*PAPER_SPACE
0
ENDTAB
0
ENDSEC
0
SECTION
2
BLOCKS
0
BLOCK
5
20
100
AcDbEntity
100
AcDbBlockBegin
2
*MODEL_SPACE
0
ENDBLK
5
21
100
AcDbEntity
100
AcDbBlockEnd
0
BLOCK
5
1C
100
AcDbEntity
100
AcDbBlockBegin
2
*PAPER_SPACE
0
ENDBLK
5
1D
100
AcDbEntity
100
AcDbBlockEnd
0
ENDSEC
0
SECTION
2
ENTITIES
0
CIRCLE
5
100
100
AcDbEntity
8
0
100
AcDbCircle
10
-76.529998395755626
20
99.605000000000032
30
0
40
1.5874999999999995
210
0
220
-0
230
1
0
CIRCLE
5
101
100
AcDbEntity
8
0
100
AcDbCircle
10
-28.269998395755618
20
99.605000000000032
30
0
40
1.587499999999995
210
0
220
-0
230
1
0
CIRCLE
5
102
100
AcDbEntity
8
0
100
AcDbCircle
10
-31.444998395755619
20
165.64500000000004
30
0
40
1.587499999999995
210
0
220
-0
230
1
0
CIRCLE
5
103
100
AcDbEntity
8
0
100
AcDbCircle
10
-73.354998395755629
20
165.64500000000004
30
0
40
1.587499999999995
210
0
220
-0
230
1
0
CIRCLE
5
104
100
AcDbEntity
8
0
100
AcDbCircle
10
-91.799997577071196
20
160.00000000000006
30
0
40
2.2500000000000009
210
0
220
-0
230
1
0
CIRCLE
5
105
100
AcDbEntity
8
0
100
AcDbCircle
10
-12.999997577071305
20
133.49999988079074
30
0
40
2.2499999999999964
210
0
220
-0
230
1
0
CIRCLE
5
106
100
AcDbEntity
8
0
100
AcDbCircle
10
-99.799997577071196
20
146.75000000000006
30
0
40
2.25
210
0
220
-0
230
1
0
CIRCLE
5
107
100
AcDbEntity
8
0
100
AcDbCircle
10
-12.999997577071287
20
160.00000000000003
30
0
40
2.2499999999999964
210
0
220
-0
230
1
0
CIRCLE
5
108
100
AcDbEntity
8
0
100
AcDbCircle
10
-4.9999975770712624
20
146.75000000000003
30
0
40
2.2499999999999964
210
0
220
-0
230
1
0
CIRCLE
5
109
100
AcDbEntity
8
0
100
AcDbCircle
10
-91.79999757707121
20
133.49999988079077
30
0
40
2.2500000000000009
210
0
220
-0
230
1
0
LINE
5
110
100
AcDbEntity
8
0
100
AcDbLine
10
-1.7763568394002505e-14
20
123.50000000000001
30
0
11
-23.398159684480429
21
85.000000000000028
31
0
0
LINE
5
111
100
AcDbEntity
8
0
100
AcDbLine
10
-104.7999975770712
20
123.49999988079077
30
0
11
-81.401837696440467
21
85.000000000000028
31
0
0
LINE
5
112
100
AcDbEntity
8
0
100
AcDbLine
10
-104.7999975770712
20
123.49999988079077
30
0
11
-104.79999757707118
21
170.00000000000006
31
0
0
LINE
5
113
100
AcDbEntity
8
0
100
AcDbLine
10
-104.79999757707118
20
170.00000000000006
30
0
11
1.7763568394002505e-14
21
170.00000000000003
31
0
0
LINE
5
114
100
AcDbEntity
8
0
100
AcDbLine
10
-1.7763568394002505e-14
20
123.50000000000001
30
0
11
1.7763568394002505e-14
21
170.00000000000003
31
0
0
LWPOLYLINE
5
115
100
AcDbEntity
8
0
100
AcDbPolyline
90
4
70
1
43
0.0
10
-71.899998788535626
20
18.000000268220894
10
-71.899998788535626
20
43.000000640749924
10
-74.899998788535598
20
43.000000640749924
10
-74.899998788535598
20
18.000000268220894
0
LWPOLYLINE
5
116
100
AcDbEntity
8
0
100
AcDbPolyline
90
4
70
1
43
0.0
10
-29.899998743832086
20
18
10
-29.899998743832086
20
43.00000037252903
10
-32.899998788535569
20
43.000000372529037
10
-32.899998788535569
20
18.000000000000007
0
CIRCLE
5
117
100
AcDbEntity
8
0
100
AcDbCircle
10
-91.799997577071196
20
9.9999999999999893
30
0
40
2.2500000000000009
210
0
220
-0
230
1
0
CIRCLE
5
118
100
AcDbEntity
8
0
100
AcDbCircle
10
-12.999997577071269
20
36.500000119209311
30
0
40
2.2499999999999964
210
0
220
-0
230
1
0
CIRCLE
5
119
100
AcDbEntity
8
0
100
AcDbCircle
10
-99.799997577071196
20
23.249999999999989
30
0
40
2.25
210
0
220
-0
230
1
0
CIRCLE
5
120
100
AcDbEntity
8
0
100
AcDbCircle
10
-12.999997577071269
20
10.000000000000009
30
0
40
2.2499999999999964
210
0
220
-0
230
1
0
CIRCLE
5
121
100
AcDbEntity
8
0
100
AcDbCircle
10
-4.9999975770712624
20
23.250000000000007
30
0
40
2.2499999999999964
210
0
220
-0
230
1
0
CIRCLE
5
122
100
AcDbEntity
8
0
100
AcDbCircle
10
-91.799997577071196
20
36.500000119209297
30
0
40
2.2500000000000009
210
0
220
-0
230
1
0
LWPOLYLINE
5
123
100
AcDbEntity
8
0
100
AcDbPolyline
90
6
70
1
43
0.0
10
-23.398159684480401
20
85
10
0
20
46.5
10
0
20
6.2184488746433892e-16
10
-104.7999975770712
20
-1.7763568394002505e-14
10
-104.7999975770712
20
46.50000011920929
10
-81.401837696440424
20
85.000000000000014
0
LINE
5
124
100
AcDbEntity
8
0
100
AcDbLine
10
-104.7999975770712
20
123.49999988079077
30
0
11
-104.7999975770712
21
46.50000011920929
31
0
0
LINE
5
125
100
AcDbEntity
8
0
100
AcDbLine
10
-1.7763568394002505e-14
20
123.50000000000001
30
0
11
0
21
46.5
31
0
0
ENDSEC
0
SECTION
2
OBJECTS
0
DICTIONARY
5
C
100
AcDbDictionary
3
ACAD_GROUP
350
D
3
ACAD_MLINESTYLE
350
17
0
DICTIONARY
5
D
100
AcDbDictionary
0
DICTIONARY
5
1A
330
C
100
AcDbDictionary
0
DICTIONARY
5
17
100
AcDbDictionary
0
ENDSEC
0
EOF
